<?xml version="1.0" encoding="UTF-8"?>
<svg id="Capa_2" data-name="Capa 2" xmlns="http://www.w3.org/2000/svg" viewBox="0 0 61.46 71.31">
  <defs>
    <style>
      .cls-1 {
        stroke: #fff;
      }

      .cls-1, .cls-2 {
        fill: none;
        stroke-miterlimit: 10;
        stroke-width: 3px;
      }

      .cls-2 {
        stroke: #000;
      }
    </style>
  </defs>
  <g id="Capa_19" data-name="Capa 19">
    <polyline class="cls-2" points="18.21 36.61 24.71 20.57 8.71 18.57 5.2 36.63"/>
    <polyline class="cls-1" points="5.2 36.63 1.71 54.57 9.71 57.57 18.21 36.61"/>
    <path class="cls-1" d="M38.87,36.63c-1.05.82-2.1,1.79-3.16,2.95l1.08-2.96"/>
    <path class="cls-2" d="M55.89,36.63c-3.97-3.91-11.49-4.26-18.17.95"/>
    <path class="cls-1" d="M26.81,36.63l-8.1,22.94,14,4s3-14,9-12-2,15-2,15l11,3s11-17,9-26c-.58-2.63-1.93-5.08-3.83-6.95"/>
    <polyline class="cls-2" points="36.79 36.61 39.71 28.57 30.71 25.57 26.81 36.63"/>
    <ellipse class="cls-2" cx="20.71" cy="8.57" rx="8" ry="7" transform="translate(-1.5 5.59) rotate(-14.84)"/>
  </g>
</svg>