<?xml version="1.0" encoding="UTF-8"?>
<svg id="Capa_2" data-name="Capa 2" xmlns="http://www.w3.org/2000/svg" viewBox="0 0 61.37 60.36">
  <defs>
    <style>
      .cls-1 {
        fill: none;
        stroke: #fff;
        stroke-miterlimit: 10;
        stroke-width: 3px;
      }
    </style>
  </defs>
  <g id="Capa_1-2" data-name="Capa 1">
    <polygon class="cls-1" points="1.66 22.04 3.93 40.3 6.19 58.44 14.73 58.8 16.29 36.24 17.49 18.97 1.66 22.04"/>
    <path class="cls-1" d="M35.94,29.84c-.74,1.1-1.44,2.36-2.09,3.78l.1-3.15"/>
    <path class="cls-1" d="M33.95,30.47l.28-8.55-9.49-.06-.27,11.72-.57,24.33,14.55-.55s-1.5-14.24,4.83-14.2c6.32.04,2.76,14.88,2.76,14.88l11.39-.57s5.18-19.58.48-27.51c-1.37-2.32-3.42-4.23-5.8-5.41-4.99-2.48-12.25-.48-16.98,6.54"/>
    <ellipse class="cls-1" cx="9.96" cy="8.81" rx="8" ry="7" transform="translate(-3.19 6.83) rotate(-32.94)"/>
  </g>
</svg>